<svg width="150" height="41" viewBox="0 0 150 41" fill="none" xmlns="http://www.w3.org/2000/svg">
<path fill-rule="evenodd" clip-rule="evenodd" d="M14.7221 20.1499C15.8891 20.6793 16.9189 21.4587 17.735 22.4301C18.575 23.4363 19.1998 24.5968 19.5723 25.8429C19.9806 27.1744 20.1853 28.5575 20.1796 29.9474C20.1917 31.4746 19.9009 32.9897 19.3232 34.4091C18.7726 35.7233 17.9481 36.9114 16.902 37.8979C15.8258 38.8953 14.5549 39.6708 13.165 40.1781C11.6325 40.7403 10.0062 41.0187 8.36923 40.999C3.89267 40.999 0 39.1444 0 36.3929V13.1343C0 12.7876 0.141081 12.455 0.392207 12.2098C0.643332 11.9647 0.983932 11.8269 1.33908 11.8269H2.74044C3.47695 11.8311 4.07174 12.4152 4.07173 13.1343V20.7731C4.07173 21.5332 4.2975 21.8449 4.57778 21.5332L4.95926 21.2064C5.37761 20.8486 5.83749 20.5399 6.32948 20.2867C6.92824 19.9943 7.55721 19.765 8.20574 19.6026C8.98564 19.4188 9.78577 19.3294 10.5881 19.3366C12.0105 19.3084 13.4218 19.5861 14.7221 20.1499ZM13.8425 35.458C14.5244 34.7757 15.0545 33.9631 15.3995 33.0713H15.4385C15.8055 32.0982 15.9876 31.0679 15.9756 30.031C15.977 29.1141 15.8646 28.2004 15.6409 27.3099C15.4308 26.4899 15.0636 25.7162 14.5587 25.0296C14.0659 24.3727 13.4306 23.8303 12.698 23.441C11.8483 23.0191 10.9025 22.8151 9.9498 22.8482C9.06102 22.8289 8.17872 23.0001 7.36507 23.3498C6.66797 23.6659 6.04313 24.1157 5.52773 24.6724C5.02425 25.2316 4.64987 25.8901 4.43 26.603C4.18519 27.3132 4.06158 28.0579 4.06409 28.8072V34.9639C4.06409 37.0922 8.19032 38.3083 11.4368 36.9782C12.3341 36.6324 13.1519 36.1157 13.8425 35.458Z" fill="white"/>
<path d="M37.3697 19.6026C36.9571 19.5459 36.5408 19.518 36.1241 19.519C33.5004 19.519 31.523 20.6287 29.7635 21.7461C29.2029 22.0957 28.3465 20.8948 28.3465 20.8948C27.8314 20.2619 27.0635 19.8746 26.2367 19.8306C25.645 19.8306 25.2402 20.1347 25.248 20.5907C25.2558 21.0468 25.248 21.4192 25.248 21.8145V39.0608C25.2522 39.7811 25.8493 40.364 26.5871 40.3682H28.0273C28.7682 40.3682 29.3699 39.7841 29.3742 39.0608V29.5445C29.369 28.7113 29.5303 27.8852 29.8491 27.1123C30.1516 26.3655 30.5894 25.6781 31.1415 25.0828C31.6847 24.5109 32.3417 24.0532 33.0722 23.7375C33.8312 23.4068 34.6546 23.2409 35.4857 23.251C36.0261 23.2546 36.5652 23.3029 37.0972 23.3954C37.4228 23.4721 37.7663 23.3951 38.0249 23.1874C38.2835 22.9797 38.4272 22.6655 38.413 22.3389V20.5223C38.4052 20.0663 37.7824 19.6634 37.3697 19.6026Z" fill="white"/>
<path d="M71.3449 19.8306H69.4998C68.7014 19.8643 67.9893 20.3307 67.6547 21.0392L62.1037 34.6447C61.9714 34.9715 61.7689 35.1312 61.5665 35.1464C61.3641 35.1616 61.1617 34.9715 61.0293 34.6447L55.4784 21.0392C55.1464 20.3319 54.4371 19.8654 53.6411 19.8306H51.7881C51.4824 19.8032 51.1867 19.9453 51.0225 20.1986C50.8583 20.4518 50.8534 20.7736 51.0096 21.0316L58.9429 39.1672C59.2983 39.8672 60.0123 40.3261 60.8113 40.3682H62.3217C63.1208 40.3261 63.8347 39.8672 64.1902 39.1672L72.1546 21.0316C72.3579 20.7747 72.3716 20.4201 72.1888 20.1489C72.006 19.8778 71.667 19.7499 71.3449 19.8306Z" fill="white"/>
<path d="M53.2671 15.5818C53.0335 15.0193 52.5431 13.7879 52.2316 13.0583C51.894 12.3295 51.1588 11.8539 50.3398 11.8345H48.4013C48.0996 11.7906 47.797 11.9081 47.6086 12.1423C47.4202 12.3765 47.3751 12.6914 47.4904 12.9671C47.7317 13.5219 48.2689 14.8369 48.5647 15.4601C48.926 16.1539 49.6374 16.6083 50.4332 16.6535H52.3718C53.0958 16.6535 53.4929 16.1366 53.2671 15.5818Z" fill="white"/>
<path fill-rule="evenodd" clip-rule="evenodd" d="M94.6151 19.2226C97.3296 19.2226 99.4653 19.861 101.022 21.138C102.635 22.5045 103.511 24.5212 103.397 26.603V34.295C103.397 37.5482 101.015 40.5049 95.0277 40.885C93.4101 41.0082 91.7831 40.8328 90.2319 40.3681C84.245 38.4983 84.1049 32.1136 87.546 29.2329C90.8158 26.5042 95.6817 26.907 99.3018 27.5075C99.3159 26.8355 99.2952 26.1632 99.2396 25.4933C99.1538 24.7374 98.7983 24.035 98.2353 23.5094C97.1676 22.7865 95.8805 22.4381 94.5839 22.5213C93.1659 22.4736 91.7518 22.6929 90.4188 23.1674C89.9361 23.3726 89.5391 23.5474 89.1576 23.7375C88.2389 24.2087 87.7329 23.9655 87.4604 23.6158L86.9232 22.8558C86.4917 22.3809 86.4917 21.6661 86.9232 21.1912L87.437 20.8947C88.0168 20.5736 88.6237 20.3015 89.251 20.0815C90.0099 19.8109 90.7913 19.6049 91.5866 19.4658C92.5858 19.2906 93.5999 19.2091 94.6151 19.2226ZM91.8124 37.0846C95.4793 38.3387 99.0605 36.7045 99.2551 34.5383C99.2629 34.3787 99.2551 32.2656 99.2006 32.2656C99.2006 31.1407 98.7724 30.8139 98.4221 30.6694C96.5069 29.879 91.6255 30.1754 90.1385 31.6956C89.773 32.0712 89.5059 32.5276 89.36 33.0257C89.0564 34.0442 88.9474 36.1117 91.8124 37.0846Z" fill="white"/>
<path d="M45.4197 19.8306H44.0262C43.2927 19.8348 42.6991 20.4143 42.6949 21.1304V39.0608C42.6949 39.7799 43.2897 40.364 44.0262 40.3682H45.4197C46.1575 40.364 46.7546 39.7811 46.7588 39.0608V21.1304C46.7545 20.4113 46.1563 19.8306 45.4197 19.8306Z" fill="white"/>
<path d="M79.1845 19.8306H77.7909C77.0544 19.8306 76.4561 20.4113 76.4518 21.1304V39.0608C76.4561 39.7811 77.0531 40.364 77.7909 40.3682H79.1845C79.9223 40.364 80.5193 39.7811 80.5236 39.0608V21.1304C80.5193 20.4113 79.921 19.8306 79.1845 19.8306Z" fill="white"/>
<path d="M127.874 31.4904H132.545C132.644 31.4826 132.736 31.4365 132.801 31.3623C132.865 31.2881 132.896 31.1919 132.888 31.0951C132.888 29.3545 132.039 28.5336 130.311 28.5336C128.419 28.5336 127.625 29.5141 127.625 31.2091C127.618 31.279 127.641 31.3483 127.688 31.4014C127.735 31.4544 127.802 31.4865 127.874 31.4904Z" fill="white"/>
<path d="M115.659 35.0779C115.993 35.391 116.395 35.6273 116.834 35.7696C118.454 36.3245 120.486 35.6176 120.486 34.5535V31.5131C120.485 31.1439 120.425 30.777 120.307 30.4262C120.194 30.0899 120.008 29.7813 119.762 29.5217C119.506 29.2634 119.198 29.0591 118.859 28.9213C118.455 28.7694 118.021 28.7096 117.59 28.7464C117.117 28.7595 116.655 28.8847 116.243 29.1113C115.88 29.3241 115.567 29.6089 115.324 29.9474C115.075 30.2967 114.895 30.6886 114.795 31.1027C114.685 31.5431 114.63 31.9948 114.631 32.4481C114.624 32.949 114.714 33.4467 114.896 33.915C115.055 34.3547 115.317 34.7526 115.659 35.0779Z" fill="white"/>
<path fill-rule="evenodd" clip-rule="evenodd" d="M144.55 40.999H108.816V0H150V35.6784C150 38.6169 147.56 40.999 144.55 40.999ZM142.409 29.3697L137.279 36.2105C137.148 36.4364 137.144 36.712 137.268 36.9414C137.393 37.1708 137.629 37.3223 137.894 37.343H145.072C145.383 37.343 145.523 37.1226 145.523 36.8186V36.2485C145.523 35.9369 145.383 35.534 145.072 35.534H140.315C140.113 35.534 139.996 35.382 140.113 35.2224L145.243 28.3816C145.398 28.1521 145.414 27.8588 145.285 27.6145C145.156 27.3702 144.902 27.213 144.62 27.2035H138.166C137.847 27.2035 137.738 27.4999 137.738 27.8039V28.3816C137.738 28.6856 137.847 29.0201 138.166 29.0201H142.207C142.295 29.0124 142.38 29.0558 142.424 29.1312C142.467 29.2065 142.462 29.2998 142.409 29.3697ZM125.757 30.8899C125.68 29.8001 126.099 28.7326 126.901 27.9712C127.821 27.2056 129.002 26.8066 130.21 26.8538C131.395 26.8034 132.553 27.2102 133.433 27.9864C134.268 28.7273 134.726 29.7892 134.686 30.8899V31.84C134.668 32.2084 134.5 32.5546 134.22 32.8015C133.939 33.0484 133.569 33.1756 133.192 33.1549H127.578C127.527 33.7667 127.689 34.3774 128.038 34.8879C128.642 35.4337 129.451 35.7091 130.272 35.648C131.25 35.5954 132.222 35.4607 133.176 35.2452C133.42 35.181 133.675 35.2962 133.783 35.5188L133.947 36.3169C134.008 36.4483 134.009 36.5986 133.952 36.7314C133.894 36.8642 133.782 36.9675 133.643 37.0162C132.547 37.3485 131.404 37.5075 130.257 37.4874C129.046 37.5268 127.865 37.1198 126.948 36.3473C126.134 35.5888 125.706 34.5171 125.78 33.421L125.757 30.8899ZM113.79 28.7844C113.382 29.2939 113.075 29.8741 112.887 30.4946C112.674 31.159 112.564 31.8507 112.56 32.5469C112.553 33.2921 112.698 34.0314 112.988 34.7207C113.255 35.346 113.659 35.9065 114.172 36.3625C114.705 36.8226 115.331 37.1694 116.009 37.381C116.764 37.6122 117.556 37.7049 118.345 37.6546C120.556 37.5254 122.455 36.5145 122.455 35.1616V24.0111C122.455 23.6572 122.164 23.3692 121.801 23.365H121.109C120.746 23.3692 120.455 23.6572 120.455 24.0111V27.5987C120.455 27.9864 120.346 28.1308 120.205 27.9864L120.019 27.8343C119.812 27.6719 119.584 27.5365 119.341 27.4315C119.048 27.3003 118.739 27.2033 118.423 27.1427C118.038 27.0711 117.645 27.0506 117.255 27.0819C116.548 27.1061 115.854 27.2798 115.223 27.5911C114.665 27.8866 114.177 28.2931 113.79 28.7844Z" fill="white"/>
</svg>
